<mxfile host="app.diagrams.net" agent="Mozilla/5.0 (Windows NT 10.0; Win64; x64) AppleWebKit/537.36 (KHTML, like Gecko) Chrome/138.0.0.0 Safari/537.36 OPR/122.0.0.0 (Edition std-2)" version="28.2.7">
  <diagram name="PÃ¡gina-1" id="uX9shmX5wNB9xqoOuZO5">
    <mxGraphModel dx="281" dy="1809" grid="1" gridSize="10" guides="1" tooltips="1" connect="1" arrows="1" fold="1" page="1" pageScale="1" pageWidth="827" pageHeight="1169" math="0" shadow="0">
      <root>
        <mxCell id="0" />
        <mxCell id="1" parent="0" />
        <mxCell id="mTvKbT3Emb74TS9IKlDz-1" style="edgeStyle=none;curved=1;rounded=0;orthogonalLoop=1;jettySize=auto;html=1;exitX=0.5;exitY=1;exitDx=0;exitDy=0;entryX=0.5;entryY=0;entryDx=0;entryDy=0;fontSize=12;startSize=8;endSize=8;" edge="1" parent="1" source="mTvKbT3Emb74TS9IKlDz-2" target="mTvKbT3Emb74TS9IKlDz-5">
          <mxGeometry relative="1" as="geometry" />
        </mxCell>
        <mxCell id="mTvKbT3Emb74TS9IKlDz-2" value="" style="rounded=0;whiteSpace=wrap;html=1;" vertex="1" parent="1">
          <mxGeometry x="1130" y="80" width="200" height="60" as="geometry" />
        </mxCell>
        <mxCell id="mTvKbT3Emb74TS9IKlDz-3" value="EXECUTE" style="text;html=1;align=center;verticalAlign=middle;whiteSpace=wrap;rounded=0;" vertex="1" parent="1">
          <mxGeometry x="1200" y="95" width="60" height="30" as="geometry" />
        </mxCell>
        <mxCell id="mTvKbT3Emb74TS9IKlDz-4" style="edgeStyle=none;curved=1;rounded=0;orthogonalLoop=1;jettySize=auto;html=1;exitX=0.5;exitY=1;exitDx=0;exitDy=0;entryX=0.5;entryY=0;entryDx=0;entryDy=0;fontSize=12;startSize=8;endSize=8;" edge="1" parent="1" source="mTvKbT3Emb74TS9IKlDz-5" target="mTvKbT3Emb74TS9IKlDz-8">
          <mxGeometry relative="1" as="geometry" />
        </mxCell>
        <mxCell id="mTvKbT3Emb74TS9IKlDz-5" value="" style="rounded=0;whiteSpace=wrap;html=1;" vertex="1" parent="1">
          <mxGeometry x="1130" y="170" width="200" height="60" as="geometry" />
        </mxCell>
        <mxCell id="mTvKbT3Emb74TS9IKlDz-6" value="WAIT" style="text;html=1;align=center;verticalAlign=middle;whiteSpace=wrap;rounded=0;" vertex="1" parent="1">
          <mxGeometry x="1200" y="185" width="60" height="30" as="geometry" />
        </mxCell>
        <mxCell id="mTvKbT3Emb74TS9IKlDz-7" style="edgeStyle=none;curved=0;rounded=0;orthogonalLoop=1;jettySize=auto;html=1;entryX=1;entryY=0.5;entryDx=0;entryDy=0;fontSize=12;startSize=8;endSize=8;exitX=1;exitY=0.5;exitDx=0;exitDy=0;" edge="1" parent="1" source="mTvKbT3Emb74TS9IKlDz-8" target="mTvKbT3Emb74TS9IKlDz-5">
          <mxGeometry relative="1" as="geometry">
            <mxPoint x="1300" y="270" as="sourcePoint" />
            <mxPoint x="1390" y="105.00000000000011" as="targetPoint" />
            <Array as="points">
              <mxPoint x="1430" y="295" />
              <mxPoint x="1430" y="200" />
            </Array>
          </mxGeometry>
        </mxCell>
        <mxCell id="mTvKbT3Emb74TS9IKlDz-8" value="" style="rhombus;whiteSpace=wrap;html=1;" vertex="1" parent="1">
          <mxGeometry x="1180" y="270" width="100" height="50" as="geometry" />
        </mxCell>
        <mxCell id="mTvKbT3Emb74TS9IKlDz-9" style="edgeStyle=orthogonalEdgeStyle;rounded=0;orthogonalLoop=1;jettySize=auto;html=1;exitX=0.5;exitY=1;exitDx=0;exitDy=0;entryX=0.5;entryY=0;entryDx=0;entryDy=0;" edge="1" parent="1" source="mTvKbT3Emb74TS9IKlDz-10" target="mTvKbT3Emb74TS9IKlDz-24">
          <mxGeometry relative="1" as="geometry" />
        </mxCell>
        <mxCell id="mTvKbT3Emb74TS9IKlDz-10" value="" style="rounded=0;whiteSpace=wrap;html=1;" vertex="1" parent="1">
          <mxGeometry x="1130" y="-70" width="200" height="60" as="geometry" />
        </mxCell>
        <mxCell id="mTvKbT3Emb74TS9IKlDz-11" value="IDLE" style="text;html=1;align=center;verticalAlign=middle;whiteSpace=wrap;rounded=0;" vertex="1" parent="1">
          <mxGeometry x="1200" y="-55" width="60" height="30" as="geometry" />
        </mxCell>
        <mxCell id="mTvKbT3Emb74TS9IKlDz-12" value="millis-tS &amp;gt;= wT" style="text;html=1;align=center;verticalAlign=middle;whiteSpace=wrap;rounded=0;" vertex="1" parent="1">
          <mxGeometry x="1200" y="280" width="60" height="30" as="geometry" />
        </mxCell>
        <mxCell id="mTvKbT3Emb74TS9IKlDz-13" value="0" style="text;html=1;align=center;verticalAlign=middle;whiteSpace=wrap;rounded=0;" vertex="1" parent="1">
          <mxGeometry x="1240" y="300" width="60" height="30" as="geometry" />
        </mxCell>
        <mxCell id="mTvKbT3Emb74TS9IKlDz-14" value="1" style="text;html=1;align=center;verticalAlign=middle;whiteSpace=wrap;rounded=0;" vertex="1" parent="1">
          <mxGeometry x="1150" y="290" width="60" height="30" as="geometry" />
        </mxCell>
        <mxCell id="mTvKbT3Emb74TS9IKlDz-15" style="edgeStyle=orthogonalEdgeStyle;rounded=0;orthogonalLoop=1;jettySize=auto;html=1;exitX=0;exitY=0.5;exitDx=0;exitDy=0;entryX=0.5;entryY=0;entryDx=0;entryDy=0;" edge="1" parent="1" source="mTvKbT3Emb74TS9IKlDz-17" target="mTvKbT3Emb74TS9IKlDz-10">
          <mxGeometry relative="1" as="geometry">
            <mxPoint x="1147" y="-73" as="targetPoint" />
            <Array as="points">
              <mxPoint x="1030" y="295" />
              <mxPoint x="1030" y="-110" />
              <mxPoint x="1230" y="-110" />
            </Array>
          </mxGeometry>
        </mxCell>
        <mxCell id="mTvKbT3Emb74TS9IKlDz-16" style="edgeStyle=none;curved=0;rounded=0;orthogonalLoop=1;jettySize=auto;html=1;exitX=0.5;exitY=0;exitDx=0;exitDy=0;entryX=0;entryY=0.5;entryDx=0;entryDy=0;fontSize=12;startSize=8;endSize=8;" edge="1" parent="1" source="mTvKbT3Emb74TS9IKlDz-17" target="mTvKbT3Emb74TS9IKlDz-2">
          <mxGeometry relative="1" as="geometry">
            <Array as="points">
              <mxPoint x="1100" y="110" />
            </Array>
          </mxGeometry>
        </mxCell>
        <mxCell id="mTvKbT3Emb74TS9IKlDz-17" value="" style="rhombus;whiteSpace=wrap;html=1;" vertex="1" parent="1">
          <mxGeometry x="1050" y="270" width="100" height="50" as="geometry" />
        </mxCell>
        <mxCell id="mTvKbT3Emb74TS9IKlDz-18" value="isEmpty" style="text;html=1;align=center;verticalAlign=middle;whiteSpace=wrap;rounded=0;" vertex="1" parent="1">
          <mxGeometry x="1070" y="280" width="60" height="30" as="geometry" />
        </mxCell>
        <mxCell id="mTvKbT3Emb74TS9IKlDz-19" value="1&lt;div&gt;&lt;br&gt;&lt;/div&gt;" style="text;html=1;align=center;verticalAlign=middle;whiteSpace=wrap;rounded=0;" vertex="1" parent="1">
          <mxGeometry x="1060" y="250" width="60" height="30" as="geometry" />
        </mxCell>
        <mxCell id="mTvKbT3Emb74TS9IKlDz-20" value="0" style="text;html=1;align=center;verticalAlign=middle;whiteSpace=wrap;rounded=0;" vertex="1" parent="1">
          <mxGeometry x="1020" y="290" width="60" height="30" as="geometry" />
        </mxCell>
        <mxCell id="mTvKbT3Emb74TS9IKlDz-21" style="edgeStyle=orthogonalEdgeStyle;rounded=0;orthogonalLoop=1;jettySize=auto;html=1;exitX=0;exitY=0.5;exitDx=0;exitDy=0;entryX=1;entryY=0.5;entryDx=0;entryDy=0;" edge="1" parent="1" source="mTvKbT3Emb74TS9IKlDz-8" target="mTvKbT3Emb74TS9IKlDz-17">
          <mxGeometry relative="1" as="geometry" />
        </mxCell>
        <mxCell id="mTvKbT3Emb74TS9IKlDz-22" style="edgeStyle=orthogonalEdgeStyle;rounded=0;orthogonalLoop=1;jettySize=auto;html=1;exitX=0.5;exitY=1;exitDx=0;exitDy=0;entryX=0.5;entryY=0;entryDx=0;entryDy=0;" edge="1" parent="1" source="mTvKbT3Emb74TS9IKlDz-24" target="mTvKbT3Emb74TS9IKlDz-2">
          <mxGeometry relative="1" as="geometry" />
        </mxCell>
        <mxCell id="mTvKbT3Emb74TS9IKlDz-23" style="edgeStyle=orthogonalEdgeStyle;rounded=0;orthogonalLoop=1;jettySize=auto;html=1;exitX=1;exitY=0.5;exitDx=0;exitDy=0;" edge="1" parent="1" source="mTvKbT3Emb74TS9IKlDz-24">
          <mxGeometry relative="1" as="geometry">
            <mxPoint x="1230" y="-110" as="targetPoint" />
            <Array as="points">
              <mxPoint x="1430" y="35" />
              <mxPoint x="1430" y="-110" />
            </Array>
          </mxGeometry>
        </mxCell>
        <mxCell id="mTvKbT3Emb74TS9IKlDz-24" value="" style="rhombus;whiteSpace=wrap;html=1;" vertex="1" parent="1">
          <mxGeometry x="1180" y="10" width="100" height="50" as="geometry" />
        </mxCell>
        <mxCell id="mTvKbT3Emb74TS9IKlDz-25" value="1" style="text;html=1;align=center;verticalAlign=middle;whiteSpace=wrap;rounded=0;" vertex="1" parent="1">
          <mxGeometry x="1210" y="50" width="60" height="30" as="geometry" />
        </mxCell>
        <mxCell id="mTvKbT3Emb74TS9IKlDz-26" value="!isEmpty" style="text;html=1;align=center;verticalAlign=middle;whiteSpace=wrap;rounded=0;" vertex="1" parent="1">
          <mxGeometry x="1200" y="20" width="60" height="30" as="geometry" />
        </mxCell>
        <mxCell id="mTvKbT3Emb74TS9IKlDz-27" value="0" style="text;html=1;align=center;verticalAlign=middle;whiteSpace=wrap;rounded=0;" vertex="1" parent="1">
          <mxGeometry x="1250" y="10" width="60" height="30" as="geometry" />
        </mxCell>
      </root>
    </mxGraphModel>
  </diagram>
</mxfile>
